# xmcd
#
# Track frame offsets:
#	183
#	17288
#	36508
#	53015
#	74123
#	94263
#	107628
#	130630
#	148040
#	161313
#
# Disc length: 2489 seconds
#
# Revision: 1
# Processed by: cddbd v1.4PL0 Copyright (c) Steve Scherf et al.
# Submitted via: audiograbber 1.82.02
#
DISCID=8309b70a
DTITLE=David Halley - Stray Dog Talk
DYEAR=1990
DGENRE=Country
TTITLE0=Live and Learn
TTITLE1=Rain Just Falls
TTITLE2=Opportunity Knockin'
TTITLE3=If Ever You Need Me
TTITLE4=Tonight
TTITLE5=Darlene
TTITLE6=When It Comes To You
TTITLE7=Further
TTITLE8=Walk The Line
TTITLE9=Dream Life
EXTD=
EXTT0=
EXTT1=
EXTT2=
EXTT3=
EXTT4=
EXTT5=
EXTT6=
EXTT7=
EXTT8=
EXTT9=
PLAYORDER=
